<svg width="1200" height="300" viewBox="0 0 1200 300" xmlns="http://www.w3.org/2000/svg">
  <!-- Gradient background -->
  <defs>
    <linearGradient id="bgGradient" x1="0%" y1="0%" x2="100%" y2="100%">
      <stop offset="0%" style="stop-color:#FF6B35;stop-opacity:1" />
      <stop offset="50%" style="stop-color:#F7931E;stop-opacity:1" />
      <stop offset="100%" style="stop-color:#FFD23F;stop-opacity:1" />
    </linearGradient>
    <radialGradient id="plateGradient" cx="50%" cy="50%" r="50%">
      <stop offset="0%" style="stop-color:#FFFFFF;stop-opacity:1" />
      <stop offset="70%" style="stop-color:#F5F5F5;stop-opacity:1" />
      <stop offset="100%" style="stop-color:#E0E0E0;stop-opacity:1" />
    </radialGradient>
  </defs>
  
  <!-- Background -->
  <rect width="1200" height="300" fill="url(#bgGradient)"/>
  
  <!-- Wood texture pattern -->
  <rect width="1200" height="300" fill="url(#bgGradient)" opacity="0.9"/>
  
  <!-- Pizza plates and ingredients scattered -->
  
  <!-- Main pizza plate (center-left) -->
  <ellipse cx="200" cy="150" rx="80" ry="15" fill="#8B4513" opacity="0.3"/>
  <circle cx="200" cy="140" r="75" fill="url(#plateGradient)" stroke="#D0D0D0" stroke-width="2"/>
  
  <!-- Pizza on main plate -->
  <circle cx="200" cy="140" r="65" fill="#F4A460"/>
  <circle cx="185" cy="125" r="8" fill="#FF6347"/>
  <circle cx="210" cy="135" r="6" fill="#228B22"/>
  <circle cx="195" cy="155" r="7" fill="#FF6347"/>
  <circle cx="215" cy="150" r="5" fill="#32CD32"/>
  <circle cx="180" cy="145" r="6" fill="#FF4500"/>
  <circle cx="205" cy="120" r="4" fill="#228B22"/>
  
  <!-- Secondary pizza plate (right) -->
  <ellipse cx="950" cy="180" rx="60" ry="12" fill="#8B4513" opacity="0.3"/>
  <circle cx="950" cy="170" r="55" fill="url(#plateGradient)" stroke="#D0D0D0" stroke-width="2"/>
  
  <!-- Pizza on secondary plate -->
  <circle cx="950" cy="170" r="45" fill="#DEB887"/>
  <circle cx="940" cy="160" r="5" fill="#FF6347"/>
  <circle cx="960" cy="165" r="4" fill="#228B22"/>
  <circle cx="945" cy="180" r="6" fill="#FF6347"/>
  <circle cx="955" cy="175" r="3" fill="#32CD32"/>
  
  <!-- Scattered ingredients -->
  <!-- Tomato slices -->
  <circle cx="100" cy="80" r="12" fill="#FF6347" opacity="0.8"/>
  <circle cx="100" cy="80" r="8" fill="#FF4500" opacity="0.6"/>
  
  <circle cx="1050" cy="100" r="10" fill="#FF6347" opacity="0.8"/>
  <circle cx="1050" cy="100" r="6" fill="#FF4500" opacity="0.6"/>
  
  <!-- Basil leaves -->
  <ellipse cx="150" cy="50" rx="8" ry="12" fill="#228B22" opacity="0.9" transform="rotate(25 150 50)"/>
  <ellipse cx="1100" cy="250" rx="6" ry="10" fill="#32CD32" opacity="0.9" transform="rotate(-15 1100 250)"/>
  
  <!-- Mushroom slices -->
  <ellipse cx="80" cy="200" rx="10" ry="6" fill="#DEB887" opacity="0.8"/>
  <ellipse cx="1000" cy="50" rx="8" ry="5" fill="#DEB887" opacity="0.8"/>
  
  <!-- Cheese pieces -->
  <rect x="120" y="250" width="15" height="8" fill="#FFF8DC" opacity="0.9" rx="2"/>
  <rect x="1070" y="180" width="12" height="6" fill="#FFF8DC" opacity="0.9" rx="1"/>
  
  <!-- Restaurant name overlay area (center) -->
  <rect x="300" y="100" width="600" height="100" fill="rgba(255,255,255,0.1)" rx="10" stroke="rgba(255,255,255,0.3)" stroke-width="1"/>
  
  <!-- Decorative chef's hat -->
  <ellipse cx="600" cy="60" rx="25" ry="8" fill="white" opacity="0.8"/>
  <rect x="580" y="45" width="40" height="20" fill="white" opacity="0.8" rx="20"/>
  <rect x="585" y="40" width="30" height="25" fill="white" opacity="0.9" rx="15"/>
  
  <!-- Steam lines -->
  <path d="M 550 80 Q 555 70 550 60 Q 545 50 550 40" stroke="rgba(255,255,255,0.6)" stroke-width="2" fill="none"/>
  <path d="M 650 85 Q 655 75 650 65 Q 645 55 650 45" stroke="rgba(255,255,255,0.6)" stroke-width="2" fill="none"/>
  
  <!-- Fork and knife silhouettes -->
  <rect x="50" y="120" width="3" height="60" fill="rgba(255,255,255,0.4)"/>
  <circle cx="51.5" cy="115" r="4" fill="none" stroke="rgba(255,255,255,0.4)" stroke-width="1"/>
  <line x1="48" y1="108" x2="48" y2="118" stroke="rgba(255,255,255,0.4)" stroke-width="1"/>
  <line x1="55" y1="108" x2="55" y2="118" stroke="rgba(255,255,255,0.4)" stroke-width="1"/>
  
  <rect x="1140" y="120" width="3" height="60" fill="rgba(255,255,255,0.4)"/>
  <polygon points="1135,115 1141.5,105 1148,115" fill="rgba(255,255,255,0.4)"/>
</svg>
